# This file uses meters as units for non-parametric coordinates.

mtllib Cassette.mtl
g default
v -28.512000 -14.336346 2.003581
v 28.512000 -14.336346 2.003581
v -28.512000 17.343654 2.003581
v 28.512000 17.343654 2.003581
v -28.512000 17.343654 -4.332419
v 28.512000 17.343654 -4.332419
v -28.512000 -14.336346 -4.332419
v 28.512000 -14.336346 -4.332419
vt 0.617391 0.134527
vt 0.617391 0.154708
vt 0.516483 0.154709
vt 0.516483 0.134527
vt 0.314318 0.133324
vt 0.500077 0.133324
vt 0.500077 0.154071
vt 0.314318 0.154071
vt 0.311886 0.199973
vt 0.629595 0.199973
vt 0.617391 0.154708
vt 0.617391 0.134527
vt 0.516483 0.134527
vt 0.516483 0.154709
vt 0.312291 0.212035
vt 0.625565 0.212035
vt 0.625565 0.386076
vt 0.312291 0.386076
vt 0.625565 0.386076
vt 0.312291 0.386076
vt 0.312291 0.212035
vt 0.625565 0.212035
vt 0.629595 0.165800
vt 0.311886 0.165800
vn 0.000000 0.000000 1.000000
vn 0.000000 0.000000 1.000000
vn 0.000000 0.000000 1.000000
vn 0.000000 0.000000 1.000000
vn 0.000000 1.000000 0.000000
vn 0.000000 1.000000 0.000000
vn 0.000000 1.000000 0.000000
vn 0.000000 1.000000 0.000000
vn 0.000000 0.000000 -1.000000
vn 0.000000 0.000000 -1.000000
vn 0.000000 0.000000 -1.000000
vn 0.000000 0.000000 -1.000000
vn 0.000000 -1.000000 0.000000
vn 0.000000 -1.000000 0.000000
vn 0.000000 -1.000000 0.000000
vn 0.000000 -1.000000 0.000000
vn 1.000000 0.000000 0.000000
vn 1.000000 0.000000 0.000000
vn 1.000000 0.000000 0.000000
vn 1.000000 0.000000 0.000000
vn -1.000000 0.000000 0.000000
vn -1.000000 0.000000 0.000000
vn -1.000000 0.000000 0.000000
vn -1.000000 0.000000 0.000000
s 1
g a
usemtl lambert6SG
f 1/15/1 2/16/2 3/18/3
f 3/18/3 2/16/2 4/17/4
s 2
f 3/5/5 4/6/6 5/8/7
f 5/8/7 4/6/6 6/7/8
s 3
f 5/19/9 6/20/10 7/22/11
f 7/22/11 6/20/10 8/21/12
s 4
f 7/9/13 8/10/14 1/24/15
f 1/24/15 8/10/14 2/23/16
s 5
f 2/1/17 8/2/18 4/4/19
f 4/4/19 8/2/18 6/3/20
s 6
f 7/11/21 1/12/22 5/14/23
f 5/14/23 1/12/22 3/13/24
